<svg xmlns="http://www.w3.org/2000/svg" xmlns:xlink="http://www.w3.org/1999/xlink" width="500" zoomAndPan="magnify" viewBox="0 0 375 374.999991" height="500" preserveAspectRatio="xMidYMid meet" version="1.0"><defs><clipPath id="ae768f5676"><path d="M 131.390625 116.738281 L 243.890625 116.738281 L 243.890625 202.988281 L 131.390625 202.988281 Z M 131.390625 116.738281 " clip-rule="nonzero"/></clipPath></defs><g clip-path="url(#ae768f5676)"><path fill="#a0153e" d="M 162.234375 152.679688 C 160.03125 153.945312 159.257812 156.09375 159.003906 158.570312 L 146.664062 151.449219 L 141.597656 154.367188 L 141.597656 157.488281 L 158.875 167.457031 L 158.875 183.796875 C 158.875 187.175781 161.480469 189.121094 164.457031 190.882812 L 184.171875 202.265625 C 187.089844 203.9375 190.082031 202.652344 193.09375 200.960938 L 212.8125 189.578125 C 215.695312 187.890625 216.078125 184.660156 216.117188 181.207031 L 216.117188 167.457031 L 238.660156 154.441406 C 244.480469 151.082031 245.984375 149.703125 238.660156 145.484375 L 192.691406 118.953125 C 187.753906 116.089844 186.90625 116.292969 181.839844 119.210938 L 136.328125 145.484375 C 129.003906 149.703125 130.527344 151.082031 136.328125 154.441406 L 136.328125 166.816406 C 133.6875 167.878906 133.265625 171.476562 135.613281 173.128906 C 135.300781 173.550781 135.101562 174.085938 135.101562 174.671875 L 135.101562 186.699219 L 140.242188 186.699219 L 140.242188 174.671875 C 140.242188 174.101562 140.058594 173.570312 139.726562 173.128906 C 141.855469 171.644531 141.800781 168.597656 139.578125 167.109375 L 139.011719 166.816406 L 139.011719 152.882812 L 183.96875 126.921875 C 188.082031 124.535156 187.511719 124.921875 192.855469 128.003906 L 192.855469 141.1875 L 190.816406 140.011719 C 187.898438 138.339844 184.90625 139.625 181.894531 141.316406 L 162.214844 152.679688 Z M 216.078125 141.40625 L 227.535156 148.015625 C 230.195312 149.558594 231.207031 149.761719 229.71875 150.621094 L 216.117188 158.480469 L 216.078125 141.386719 Z M 208.351562 150.144531 C 214.113281 153.46875 214.078125 153.78125 208.351562 150.144531 Z M 166.640625 178.34375 L 166.640625 163.96875 C 166.65625 159.894531 167.632812 158.570312 171.027344 156.570312 L 183.089844 149.613281 C 186.523438 147.648438 188.15625 147.484375 191.679688 149.503906 L 200.585938 154.644531 L 200.585938 132.503906 L 208.351562 136.984375 L 208.351562 178.140625 C 208.332031 182.089844 207.671875 183.59375 204.144531 185.652344 L 191.699219 192.847656 L 187.496094 195.269531 L 183.105469 192.738281 L 171.046875 185.78125 C 167.632812 183.796875 166.65625 182.457031 166.65625 178.382812 Z M 166.640625 178.34375 " fill-opacity="1" fill-rule="evenodd"/></g><path fill="#00224d" d="M 183.933594 158.058594 L 175.929688 162.683594 C 174.570312 163.472656 174.40625 164.980469 174.386719 166.578125 L 174.386719 176.914062 C 174.386719 178.472656 175.617188 179.371094 176.992188 180.199219 L 177.359375 180.417969 L 185.933594 185.375 L 187.476562 186.257812 L 199.042969 179.574219 C 200.382812 178.804688 200.566406 177.296875 200.585938 175.699219 L 200.585938 163.566406 L 189.019531 156.902344 L 187.476562 156.019531 L 183.914062 158.078125 Z M 183.933594 158.058594 " fill-opacity="1" fill-rule="evenodd"/></svg>